<?xml version="1.0" encoding="UTF-8"?>
<!DOCTYPE svg PUBLIC "-//W3C//DTD SVG 1.1//EN" "http://www.w3.org/Graphics/SVG/1.1/DTD/svg11.dtd">
<svg version="1.1" xmlns="http://www.w3.org/2000/svg" xmlns:xlink="http://www.w3.org/1999/xlink" x="0" y="0" width="768" height="1024" viewBox="0, 0, 768, 1024">
  <defs>
    <clipPath id="Clip_1">
      <path d="M185.982,386.5 L294.769,386.5 L294.769,284.5 L185.982,284.5 z"/>
    </clipPath>
  </defs>
  <g id="Layer_2">
    <path d="M67.5,170.5 L700.5,170.5 L700.5,566.5 L67.5,566.5 L67.5,170.5 z" fill="#000000"/>
  </g>
  <g id="Layer_1">
    <g>
      <g clip-path="url(#Clip_1)" id="Layer_1">
        <path d="M210.311,298.764 C209.559,295.142 212.316,291.632 216.326,290.953 C220.335,290.274 224.22,292.764 224.972,296.387 L232.115,331.594 L232.365,331.594 L232.365,291.292 C232.365,287.557 235.749,284.5 239.884,284.5 C244.019,284.5 247.402,287.557 247.402,291.292 L247.402,331.594 L247.653,331.594 L254.294,297.292 C255.046,293.67 258.931,291.179 262.941,291.858 C266.951,292.538 269.707,296.047 268.956,299.67 L263.693,325.934 C267.326,326.613 270.083,329.557 270.083,333.066 L270.083,351.858 C270.083,366.575 267.326,372.915 265.322,377.557 C264.194,380.16 263.317,382.085 263.317,384.802 C263.317,385.708 262.439,386.5 261.437,386.5 C260.434,386.5 259.557,385.708 259.557,384.802 C259.557,381.406 260.56,379.028 261.813,376.311 C263.442,372.462 265.697,367.368 266.199,356.726 C264.946,357.406 263.567,357.858 261.938,357.858 C257.427,357.858 253.918,354.575 253.918,350.613 L253.918,348.802 C251.162,351.292 246.901,352.425 240.385,352.425 L236.626,356.5 C241.889,358.991 243.768,366.915 244.019,367.934 C244.27,368.84 243.518,369.745 242.515,369.972 C241.513,370.198 240.51,369.632 240.26,368.613 C239.633,366.123 237.127,359.104 233.117,359.104 C232.365,359.104 231.739,358.764 231.363,358.085 C231.112,357.519 231.112,356.726 231.613,356.274 L237.879,349.594 C238.255,349.255 238.756,349.028 239.383,349.028 C245.272,349.028 249.157,348.236 251.287,346.311 C252.665,345.066 253.542,343.255 253.793,340.877 L239.508,340.877 C239.508,340.877 239.383,340.877 239.383,340.877 C234.495,340.877 232.992,342.689 232.992,342.802 C232.866,342.915 232.866,343.028 232.741,343.028 L222.716,353.104 C219.584,356.613 218.706,358.311 218.581,358.651 C218.832,365.67 220.335,370.425 221.589,374.613 C222.716,378.123 223.594,381.179 223.594,384.802 C223.594,385.708 222.716,386.5 221.714,386.5 C220.711,386.5 219.834,385.708 219.834,384.802 C219.834,381.632 218.957,378.802 217.955,375.519 C216.576,371.104 215.072,366.236 214.822,358.764 C214.822,358.311 214.822,357.519 216.2,355.481 L217.579,336.009 L210.311,298.764 z M257.803,350.387 C257.803,352.538 259.683,354.236 262.064,354.236 C264.444,354.236 266.324,352.538 266.324,350.387 L266.324,332.953 C266.324,330.802 264.444,329.104 262.064,329.104 C259.683,329.104 257.803,330.802 257.803,332.953 L257.803,350.387 z M230.11,340.651 C230.736,339.858 233.242,337.255 239.633,337.255 C239.633,337.255 239.758,337.255 239.758,337.255 L254.169,337.255 L254.169,332.953 C254.169,329.557 256.675,326.726 260.059,325.934 L265.447,298.991 C265.572,298.085 265.447,297.179 264.82,296.5 C264.194,295.821 263.442,295.255 262.439,295.142 C261.437,295.028 260.434,295.142 259.683,295.708 C258.931,296.274 258.304,296.953 258.179,297.858 L251.162,333.632 C251.036,334.425 250.284,334.991 249.282,334.991 C249.282,334.991 249.282,334.991 249.282,334.991 L245.523,334.991 C244.52,334.991 243.643,334.198 243.643,333.292 L243.643,291.292 C243.643,289.481 242.014,287.896 239.884,287.896 C237.879,287.896 236.124,289.368 236.124,291.292 L236.124,333.179 C236.124,334.085 235.373,334.877 234.37,334.877 L230.611,334.991 C229.734,334.991 228.857,334.425 228.731,333.632 L221.338,296.953 C220.962,295.142 219.082,293.896 217.077,294.236 C215.072,294.575 213.694,296.274 214.07,298.085 L221.338,335.443 C221.338,335.557 221.338,335.67 221.338,335.896 L220.335,350.274 L230.11,340.651 z" fill="#FFFFFF"/>
      </g>
      <text transform="matrix(1, 0, 0, 1, 404.769, 396)">
        <tspan x="-110.109" y="-9.5" font-family="Quicksand-Regular" font-size="51" fill="#FFFFFF">INGTRIO</tspan>
      </text>
    </g>
  </g>
</svg>
